# xmcd CD database file
# Copyright (C) 1996 Ti Kan
#
# Track frame offsets:
#	183
#	6568
#	40325
#	57558
#	92920
#	110233
#	129858
#	167318
#	178658
#	201840
#	218520
#	226358
#	260058
# Disc length: 3527 seconds
#
# Revision: 1
# Processed by: cddbd v1.4b42PL0 Copyright (c) Steve Scherf et al.
# Submitted via: CDCOPY 4.900
#
DISCID=b90dc50d
DTITLE=Gilead Limor - You Are Chirstmas
DYEAR=1900
DGENRE=
TTITLE0=We Wish You A Merry Chirstmas
TTITLE1=Hark The Hearld Angles Sing
TTITLE2=Joy To The World
TTITLE3=Silent Night
TTITLE4=O Come All Ye Faithful
TTITLE5=Good King Wenceslas
TTITLE6=The First Noel
TTITLE7=God Rest Ye Merry Gentlemen
TTITLE8=Coventry Carol
TTITLE9=Angels We Have heard On High
TTITLE10=Deck The Halls
TTITLE11=Oh Little Town Of Bethlehem
TTITLE12=We Wish You A Merry Chirstmas
EXTD=
EXTT0=
EXTT1=
EXTT2=
EXTT3=
EXTT4=
EXTT5=
EXTT6=
EXTT7=
EXTT8=
EXTT9=
EXTT10=
EXTT11=
EXTT12=
PLAYORDER=
